<?xml version="1.0" encoding="UTF-8"?>
<svg version="1.1" xmlns="http://www.w3.org/2000/svg" width="133" height="134">
<path d="M0 0 C43.89 0 87.78 0 133 0 C133 44.22 133 88.44 133 134 C89.11 134 45.22 134 0 134 C0 89.78 0 45.56 0 0 Z " fill="#FDFDFD" transform="translate(0,0)"/>
<path d="M0 0 C11.55 0 23.1 0 35 0 C34.02447791 3.90208836 32.68889345 6.83549486 30.875 10.41015625 C30.41456299 11.32322792 30.41456299 11.32322792 29.94482422 12.25474548 C28.96701318 14.1926115 27.98388135 16.12770984 27 18.0625 C26.01682051 20.00120105 25.03482728 21.9404799 24.05517578 23.88096619 C23.16700152 25.63949585 22.27500114 27.39609151 21.3828125 29.15258789 C19.93659316 31.97359867 19.93659316 31.97359867 19 35 C20.00377686 34.95810547 21.00755371 34.91621094 22.04174805 34.87304688 C25.77781765 34.72788314 29.51364059 34.63628527 33.25170898 34.56054688 C34.86704458 34.5203942 36.48209078 34.46585523 38.09643555 34.39648438 C51.3456188 33.84154476 51.3456188 33.84154476 54.97583008 36.38354492 C56.35864818 38.5270105 57.14537573 40.59649942 58 43 C59.02002256 44.98447836 60.05919826 46.9591828 61.11328125 48.92578125 C62.1839014 51.05257146 63.25023818 53.18152277 64.3125 55.3125 C64.86228516 56.39595703 65.41207031 57.47941406 65.97851562 58.59570312 C66.75678711 60.1512793 66.75678711 60.1512793 67.55078125 61.73828125 C68.02169189 62.67712158 68.49260254 63.61596191 68.9777832 64.58325195 C70 67 70 67 70 70 C58.45 70 46.9 70 35 70 C29.8125 59.0625 29.8125 59.0625 28.21020508 55.67211914 C25.34420934 49.6556022 22.32560715 43.77576626 19 38 C18.34 38 17.68 38 17 38 C11.72 48.56 6.44 59.12 1 70 C-10.55 70 -22.1 70 -34 70 C-32.49051382 65.47154145 -30.95385075 61.66397038 -28.83544922 57.44384766 C-28.52304291 56.81874298 -28.2106366 56.19363831 -27.88876343 55.54959106 C-26.86452293 53.50249333 -25.83465997 51.45828139 -24.8046875 49.4140625 C-24.08974814 47.98791747 -23.37516393 46.56159435 -22.66091919 45.13510132 C-20.78704685 41.39496499 -18.90838064 37.65725703 -17.02868652 33.92004395 C-14.77062461 29.42805134 -12.51856236 24.93304834 -10.26548767 20.43855286 C-6.84823504 13.6233918 -3.42341066 6.81208548 0 0 Z " fill="#050505" transform="translate(51,28)"/>
</svg>
